<?xml version="1.0" standalone="no"?>
<!DOCTYPE svg PUBLIC "-//W3C//DTD SVG 20010904//EN"
 "http://www.w3.org/TR/2001/REC-SVG-20010904/DTD/svg10.dtd">
<svg version="1.0" xmlns="http://www.w3.org/2000/svg"
 width="848.000000pt" height="848.000000pt" viewBox="0 0 848.000000 848.000000"
 preserveAspectRatio="xMidYMid meet">
<metadata>
Created by potrace 1.11, written by Peter Selinger 2001-2013
</metadata>
<g transform="translate(0.000000,848.000000) scale(0.100000,-0.100000)"
fill="#000000" stroke="none">
<path d="M3410 8203 c-80 -6 -87 -10 -93 -49 -11 -69 -158 -162 -260 -164 -16
0 -62 -16 -104 -35 -42 -19 -88 -35 -103 -35 -16 0 -30 -7 -34 -16 -8 -22 -8
-24 8 -24 19 0 386 105 463 132 61 22 61 22 98 3 l36 -20 -28 -12 c-15 -7 -42
-12 -60 -13 -17 0 -35 -4 -38 -10 -3 -5 -19 -10 -34 -10 -15 0 -49 -11 -75
-25 -26 -14 -61 -25 -79 -25 -33 0 -54 -6 -227 -65 -58 -19 -119 -35 -137 -35
-34 0 -63 22 -63 47 0 26 -98 6 -138 -28 -18 -16 -40 -30 -50 -30 -9 -1 -27
-3 -39 -4 -13 -1 -55 -21 -94 -44 -72 -41 -95 -44 -86 -10 3 11 1 19 -4 19
-24 0 -78 -30 -88 -49 -6 -11 -42 -37 -79 -57 -37 -21 -93 -57 -125 -81 -31
-24 -67 -43 -78 -43 -11 0 -39 -15 -62 -33 -68 -55 -119 -81 -158 -83 -31 -2
-38 2 -41 18 -3 18 -6 17 -45 -11 -48 -35 -56 -57 -18 -47 14 4 25 5 25 3 0
-2 -7 -25 -16 -50 -12 -35 -25 -52 -48 -64 -62 -32 -108 -75 -102 -96 7 -27
-7 -51 -76 -127 -32 -36 -58 -68 -58 -72 0 -5 9 -8 20 -8 57 0 -29 -129 -133
-199 -13 -9 -49 -42 -80 -73 -54 -54 -70 -60 -47 -18 5 10 23 32 40 48 28 28
42 61 21 48 -5 -4 -11 -1 -13 5 -2 7 -20 -10 -40 -37 -20 -27 -50 -62 -67 -78
-17 -17 -31 -36 -31 -44 0 -14 -95 -151 -113 -163 -5 -4 -18 -4 -29 -1 -28 7
-124 -94 -131 -139 -3 -19 -8 -44 -12 -56 -5 -17 -3 -23 8 -23 16 0 27 -20 27
-51 0 -32 27 -11 45 37 9 24 32 58 51 76 19 18 34 38 34 45 0 7 5 12 12 11 6
-2 41 45 77 104 36 59 70 111 75 115 4 4 5 -12 1 -37 -4 -30 -23 -69 -55 -115
-27 -38 -72 -108 -101 -154 -34 -55 -54 -79 -59 -71 -6 9 -11 7 -19 -9 -7 -12
-11 -27 -9 -34 1 -6 -5 -25 -14 -42 -9 -16 -25 -61 -37 -100 -11 -38 -28 -81
-38 -95 -32 -45 -63 -121 -63 -156 0 -19 -11 -49 -25 -70 -14 -20 -25 -51 -25
-68 0 -18 -11 -46 -24 -65 -35 -47 -52 -91 -38 -100 12 -7 -15 -138 -36 -177
-6 -12 -18 -62 -27 -110 -8 -49 -19 -102 -24 -119 -6 -16 -15 -73 -21 -125 -6
-52 -13 -112 -16 -132 -4 -26 -2 -38 6 -38 9 0 9 -4 2 -13 -6 -7 -11 -22 -10
-32 0 -11 -4 -55 -11 -98 -15 -108 -13 -247 5 -342 9 -44 16 -91 15 -105 0
-14 -1 -54 -1 -90 1 -36 -3 -60 -7 -55 -4 6 -18 12 -30 12 -17 1 -23 -4 -23
-20 0 -33 20 -100 35 -117 7 -8 39 -91 71 -185 31 -93 59 -172 62 -175 2 -3 2
34 -2 82 -6 79 -5 89 14 108 11 11 26 20 34 20 19 0 46 39 46 66 0 12 19 48
43 80 35 48 137 218 137 229 0 1 21 24 46 51 25 27 80 101 121 164 41 63 84
122 95 131 16 12 22 34 28 97 5 45 15 115 24 155 8 39 20 101 27 137 7 36 23
101 36 145 13 44 35 121 48 171 23 84 63 190 69 182 2 -2 8 -13 15 -25 9 -18
8 -25 -10 -42 -14 -13 -19 -26 -14 -40 9 -30 -3 -61 -26 -61 -14 0 -19 -7 -19
-30 0 -16 -5 -30 -11 -30 -5 0 -8 -4 -5 -9 7 -10 -14 -134 -23 -141 -21 -15
-42 -96 -46 -170 -1 -25 -7 -55 -13 -66 -12 -23 -36 -203 -28 -211 11 -11 40
53 38 83 -3 34 14 48 20 17 2 -10 126 171 298 432 264 403 308 464 420 588
107 119 139 162 225 309 97 165 108 180 148 192 14 5 16 10 8 25 -9 17 -2 27
52 71 98 82 560 562 547 570 -20 12 1 40 39 50 43 11 228 191 216 210 -4 7 -1
10 8 8 12 -2 87 74 87 89 0 3 -19 2 -42 -2 -39 -6 -41 -6 -24 8 11 8 27 12 36
10 11 -3 34 11 59 35 33 31 41 46 41 74 0 33 -2 36 -28 33 -34 -2 -170 -53
-178 -66 -3 -5 -16 -9 -30 -9 -15 0 -24 -6 -24 -15 0 -10 -10 -15 -30 -15 -16
0 -30 -4 -30 -9 0 -6 -28 -24 -62 -41 -44 -23 -63 -28 -68 -19 -6 8 -11 5 -19
-10 -7 -11 -18 -21 -25 -21 -8 0 -19 -7 -26 -15 -7 -9 -21 -13 -30 -10 -23 7
-70 -14 -70 -31 0 -15 -54 -47 -63 -38 -3 4 -20 -4 -37 -16 -34 -24 -50 -23
-23 3 27 24 289 162 421 222 64 29 163 68 219 86 l102 33 25 82 c14 45 33 87
41 94 8 7 15 21 15 31 0 16 7 19 43 18 33 -2 36 -3 12 -6 -47 -7 -51 -20 -6
-28 30 -5 48 -2 70 11 16 10 28 21 25 26 -3 4 1 8 9 8 7 0 38 17 68 38 31 21
62 39 70 39 24 0 81 46 68 54 -9 5 -6 15 10 35 12 15 19 29 16 32 -15 15 -292
-20 -428 -54 -32 -8 -62 -12 -67 -9 -5 3 -11 1 -15 -5 -3 -5 -16 -10 -28 -10
-21 0 -73 -15 -160 -47 -21 -7 -42 -11 -46 -8 -5 2 -39 -4 -76 -15 -38 -11
-71 -18 -73 -15 -3 2 -17 -2 -33 -11 -16 -8 -29 -10 -29 -5 0 12 99 43 111 35
5 -3 9 0 9 5 0 6 10 11 23 11 13 0 27 3 31 7 12 12 80 33 109 33 15 0 35 8 45
18 12 12 48 22 108 31 49 7 99 17 112 22 13 5 37 9 55 9 18 0 48 4 67 9 19 5
76 12 125 15 158 10 195 17 205 37 16 29 45 32 90 9 40 -20 43 -20 67 -4 31
20 125 14 174 -12 17 -8 56 -17 88 -19 74 -4 366 -43 411 -55 19 -5 51 -10 70
-11 19 -2 40 -6 45 -10 6 -3 23 -9 39 -13 15 -4 26 -9 24 -12 -3 -2 -45 3 -94
12 -49 9 -101 16 -116 15 -16 -1 -28 2 -28 7 0 7 -174 33 -265 39 -22 1 -57 5
-77 9 -22 4 -38 3 -38 -3 0 -5 18 -27 41 -48 64 -63 91 -116 87 -172 l-3 -48
90 3 c50 2 97 -2 105 -7 10 -7 -17 -10 -87 -9 -55 0 -106 -2 -111 -6 -6 -3
-13 -19 -17 -35 -3 -16 -19 -49 -35 -75 -16 -25 -25 -48 -20 -51 5 -3 60 -10
122 -15 62 -6 144 -19 181 -30 54 -17 82 -19 141 -14 101 9 119 3 138 -45 14
-34 21 -40 56 -46 23 -4 65 -24 98 -49 33 -23 95 -62 139 -86 43 -24 104 -66
135 -92 30 -27 110 -85 177 -129 67 -44 125 -88 128 -97 2 -9 238 -169 522
-355 477 -311 530 -348 662 -467 142 -128 162 -141 425 -288 5 -3 7 2 3 11 -3
10 -3 17 1 17 8 -1 56 -75 65 -103 6 -15 10 -16 28 -7 14 8 18 17 13 28 -4 9
-7 27 -7 40 1 12 -5 22 -13 22 -8 0 -14 7 -14 15 0 8 6 15 14 15 16 0 42 -92
31 -110 -3 -5 -2 -10 4 -10 16 0 51 -42 44 -53 -6 -10 566 -582 708 -708 l71
-63 -6 60 c-3 32 -3 53 0 47 3 -7 12 -13 19 -13 9 0 16 21 20 64 7 59 4 73
-49 228 -31 91 -56 172 -56 178 0 20 -47 115 -65 130 -8 7 -15 21 -15 30 0 28
-11 50 -24 50 -7 0 -23 11 -36 24 -24 27 -22 56 5 56 9 0 13 5 10 10 -4 6 -2
17 4 24 9 10 4 34 -20 97 -17 46 -31 97 -30 112 0 32 -50 149 -133 308 -31 58
-67 136 -81 174 -15 38 -44 90 -66 116 -36 44 -43 48 -72 42 -18 -3 -33 -7
-35 -8 -1 -1 9 -28 23 -60 14 -31 23 -60 20 -63 -9 -9 -58 32 -93 79 -51 68
-115 139 -120 134 -3 -3 9 -33 26 -66 18 -34 32 -67 31 -73 0 -6 -4 -2 -9 9
-7 17 -9 14 -9 -13 -1 -23 10 -47 34 -79 19 -25 35 -55 35 -67 0 -12 7 -32 16
-44 8 -12 13 -26 10 -30 -3 -5 24 -58 59 -117 36 -60 65 -113 65 -118 0 -5
-16 4 -35 20 -20 16 -53 63 -79 113 -24 47 -62 116 -85 155 -43 73 -50 91 -28
79 6 -5 -3 7 -20 25 -18 18 -33 37 -33 42 0 6 -34 46 -75 89 -41 43 -75 84
-75 90 0 18 -72 101 -103 120 -16 10 -36 33 -45 51 -9 19 -31 43 -49 54 -18
11 -37 34 -43 50 -14 39 -57 88 -70 80 -6 -4 -31 12 -57 34 -25 23 -49 41 -53
41 -4 0 -13 12 -21 26 -7 14 -53 57 -101 95 -48 38 -88 74 -88 79 0 6 -12 16
-27 22 -16 7 -39 21 -53 33 -46 40 -150 108 -156 102 -3 -3 -13 2 -22 10 -98
90 -338 222 -441 244 -31 6 -63 19 -71 28 -8 9 -35 25 -60 35 -54 23 -70 36
-47 36 9 0 17 6 17 14 0 30 89 27 97 -4 3 -12 19 -20 53 -24 26 -4 54 -14 61
-23 19 -22 156 -83 189 -83 33 0 146 -72 152 -98 3 -9 47 -41 99 -71 154 -89
159 -91 174 -78 15 14 8 37 -11 37 -8 0 -31 15 -51 33 -44 39 -133 99 -217
147 -33 18 -77 50 -98 71 -41 40 -94 69 -126 69 -11 0 -33 11 -49 23 -31 26
-84 47 -119 47 -13 0 -40 11 -60 25 -42 29 -66 33 -57 9 7 -20 -27 -11 -112
26 -33 15 -83 35 -112 44 -28 10 -68 30 -87 45 -41 33 -124 51 -136 30 -15
-23 -150 14 -150 41 0 6 -24 10 -54 10 -38 0 -56 4 -59 14 -3 8 -24 20 -46 27
-52 16 -52 29 0 29 27 0 39 4 37 12 -6 18 -67 31 -83 18 -8 -6 -33 -11 -57
-10 -24 1 -73 2 -110 3 -38 1 -68 5 -68 10 0 4 -11 23 -25 42 -18 23 -31 31
-45 28 -11 -3 -26 -1 -33 4 -7 6 -53 6 -117 1 -58 -4 -135 -9 -172 -10 -49 -2
-69 -7 -77 -20 -9 -15 -5 -18 34 -23 24 -4 48 -4 54 -1 5 4 26 0 46 -8 37 -16
37 -16 58 -16 8 0 7 -4 -3 -10 -8 -5 -34 -10 -56 -10 -23 0 -46 -6 -52 -13 -9
-10 -30 -11 -89 -6 -79 8 -162 5 -358 -11 -110 -9 -181 -5 -191 11 -4 8 26 14
49 10 4 -1 27 4 52 10 30 8 42 15 38 25 -3 8 5 15 24 19 55 13 59 17 23 27
-38 11 -99 7 -213 -12 -91 -16 -109 -8 -82 34 20 30 14 57 -12 54 -10 -1 -38
-3 -63 -5z m829 -209 c17 -4 31 -12 31 -18 0 -24 -45 -51 -85 -51 -22 -1 -69
-5 -104 -9 -43 -6 -62 -6 -58 1 7 12 -78 6 -103 -7 -8 -4 -53 -5 -100 -1 -61
4 -93 2 -112 -7 -32 -15 -80 -13 -85 4 -5 16 81 44 134 44 30 0 45 5 50 15 4
12 20 16 62 15 31 0 108 4 171 8 63 5 127 9 141 10 15 1 41 -1 58 -4z m-1789
-261 c0 -20 -42 -73 -57 -73 -10 0 -30 -7 -45 -14 -52 -27 -31 9 30 52 57 41
72 48 72 35z m3035 -23 c7 -12 -2 -12 -30 0 -19 8 -19 9 2 9 12 1 25 -3 28 -9z
m-502 -47 c15 -3 27 -9 27 -14 0 -12 -61 1 -85 19 -19 14 -19 14 5 7 14 -4 37
-9 53 -12z m-1433 -12 c0 -3 -13 -5 -30 -5 -43 2 -47 3 -32 13 14 9 62 3 62
-8z m-135 -21 c-3 -5 -21 -9 -40 -7 -43 3 -34 17 11 17 21 0 33 -4 29 -10z
m-665 -34 c0 -3 -42 -25 -122 -64 -5 -2 -8 0 -8 3 0 3 28 19 63 35 65 32 67
32 67 26z m535 -55 c-9 -7 -155 -44 -170 -42 -38 5 92 45 160 50 11 0 15 -3
10 -8z m-704 -31 c-13 -11 -31 -20 -40 -20 -10 0 -6 7 14 20 39 26 57 25 26 0z
m2107 -10 c12 0 22 -4 22 -9 0 -10 -62 -4 -120 10 -29 7 -25 8 20 4 30 -3 65
-5 78 -5z m-1598 -4 c0 -2 -7 -7 -16 -10 -8 -3 -12 -2 -9 4 6 10 25 14 25 6z
m-70 -15 c0 -9 -57 -31 -197 -76 -45 -14 -92 -34 -105 -44 -22 -17 -68 -34
-68 -25 0 8 120 63 195 89 44 15 98 36 120 46 47 21 55 22 55 10z m1830 -1
c10 -7 -6 -8 -50 -4 -36 4 -67 8 -69 10 -10 9 105 3 119 -6z m155 -25 l50 -15
-44 5 c-24 3 -51 10 -60 15 -23 14 -3 12 54 -5z m-2649 -4 c-4 -5 -36 -26 -74
-46 -37 -20 -78 -47 -92 -60 -23 -21 -70 -42 -70 -32 0 8 224 146 238 147 2 0
1 -4 -2 -9z m2802 -31 c105 -28 174 -51 169 -57 -4 -3 -226 57 -262 71 -29 12
25 3 93 -14z m122 10 c13 -9 13 -10 0 -10 -8 0 -22 5 -30 10 -13 9 -13 10 0
10 8 0 22 -5 30 -10z m-473 -46 c-3 -3 -12 -4 -19 -1 -8 3 -5 6 6 6 11 1 17
-2 13 -5z m150 -30 c-3 -3 -12 -4 -19 -1 -8 3 -5 6 6 6 11 1 17 -2 13 -5z
m516 -36 c43 -17 77 -32 75 -34 -5 -4 -187 62 -196 71 -9 10 27 -1 121 -37z
m-358 2 c3 -5 -3 -10 -14 -10 -12 0 -21 5 -21 10 0 6 6 10 14 10 8 0 18 -4 21
-10z m-2618 -65 c-60 -29 -119 -62 -130 -73 -12 -11 -38 -27 -59 -35 -20 -8
-45 -24 -57 -36 -11 -11 -40 -32 -63 -47 -24 -15 -74 -52 -113 -82 -103 -81
-96 -77 -89 -59 7 20 230 186 334 250 120 73 243 137 265 136 11 0 -29 -24
-88 -54z m2693 45 c13 -8 13 -10 -2 -10 -9 0 -20 5 -23 10 -8 13 5 13 25 0z
m40 -10 c0 -5 -5 -10 -11 -10 -5 0 -7 5 -4 10 3 6 8 10 11 10 2 0 4 -4 4 -10z
m405 -41 c33 -16 51 -27 40 -24 -11 4 -31 9 -45 12 -26 5 -84 43 -65 42 6 0
37 -14 70 -30z m125 -59 c13 -8 13 -10 -2 -10 -9 0 -20 5 -23 10 -8 13 5 13
25 0z m70 -42 c0 -10 -36 7 -45 22 -4 6 5 5 19 -2 14 -6 26 -15 26 -20z
m-2764 -23 c-9 -9 -16 -13 -16 -8 0 12 22 34 28 28 2 -2 -3 -11 -12 -20z
m2904 -51 c94 -59 169 -112 195 -137 18 -17 -17 4 -110 69 -49 34 -107 69
-127 77 -39 16 -90 57 -72 57 6 0 57 -30 114 -66z m-3010 2 c-99 -51 -114 -60
-132 -75 -10 -9 -22 -16 -26 -16 -4 0 -13 -4 -20 -9 -11 -7 -12 -4 -3 12 6 11
23 25 38 32 16 6 57 27 93 45 36 19 72 34 80 34 8 0 -5 -10 -30 -23z m-205
-106 c6 -9 -64 -44 -72 -36 -5 5 47 46 58 46 4 0 11 -4 14 -10z m-310 -30
c-21 -16 -41 -30 -46 -30 -5 0 -6 -6 -3 -14 8 -21 -134 -124 -164 -118 -23 5
-23 5 7 20 17 8 31 20 31 26 0 6 12 19 28 28 15 9 56 40 92 67 36 28 71 51 79
51 8 0 -3 -13 -24 -30z m225 -19 c0 -10 -83 -61 -99 -61 -19 0 -12 20 7 20 9
1 31 12 47 25 32 26 45 31 45 16z m3539 -10 c9 -16 8 -18 -9 -14 -11 3 -20 12
-20 19 0 20 18 17 29 -5z m-4329 -1 c0 -5 -5 -10 -11 -10 -5 0 -7 5 -4 10 3 6
8 10 11 10 2 0 4 -4 4 -10z m-40 -144 c-180 -179 -250 -252 -250 -261 0 -4
-19 -31 -43 -59 -24 -28 -52 -66 -62 -83 -11 -18 -23 -33 -28 -33 -14 0 105
164 191 262 100 115 312 322 320 313 3 -3 -54 -66 -128 -139z m973 122 c-13
-12 -26 -18 -30 -14 -4 4 1 14 11 22 31 22 43 17 19 -8z m3481 -46 c16 -12 25
-22 19 -22 -5 0 -24 14 -43 31 -36 32 -26 28 24 -9z m-3759 -2 c-3 -6 -21 -17
-38 -26 -18 -9 -44 -31 -59 -48 -15 -17 -27 -27 -28 -21 0 5 -7 -1 -16 -13 -8
-12 -21 -22 -28 -22 -15 0 -44 -22 -104 -77 -43 -40 -78 -60 -88 -50 -2 2 13
16 33 30 21 14 58 44 83 66 25 22 50 41 56 41 6 0 22 10 35 23 32 30 87 70
124 90 36 19 38 20 30 7z m3887 -100 c39 -36 98 -93 132 -127 34 -35 67 -63
74 -63 6 0 12 -5 12 -10 0 -6 19 -31 41 -55 81 -88 27 -43 -93 78 -68 67 -154
150 -193 185 -38 35 -64 62 -57 60 8 -2 45 -33 84 -68z m-4262 -34 c0 -3 -4
-8 -10 -11 -5 -3 -10 -1 -10 4 0 6 5 11 10 11 6 0 10 -2 10 -4z m-50 -39 c0
-6 -37 -47 -42 -47 -3 0 -3 11 0 25 3 16 11 25 23 25 11 0 19 -2 19 -3z m-72
-66 c-12 -20 -45 -38 -53 -29 -2 2 8 18 22 37 28 36 55 30 31 -8z m-494 -46
c-4 -8 -10 -15 -14 -15 -5 0 -12 -9 -15 -21 -6 -16 -10 -18 -18 -9 -9 10 -9
14 1 17 6 3 12 11 12 18 0 12 13 22 32 24 4 1 5 -6 2 -14z m370 -70 c-9 -14
-25 -30 -34 -35 -10 -5 -27 -29 -38 -53 -11 -24 -27 -49 -36 -56 -9 -8 -16
-18 -16 -23 0 -15 -54 -58 -68 -53 -7 3 -33 -22 -59 -55 -25 -33 -49 -60 -53
-60 -3 0 -19 -22 -35 -50 -27 -47 -45 -63 -45 -40 0 6 3 10 8 10 4 0 20 26 37
57 16 31 56 83 90 116 33 33 61 64 61 68 1 5 2 13 3 19 0 5 15 17 32 25 19 11
29 22 25 31 -3 8 1 14 9 14 8 0 15 4 15 8 0 14 62 72 71 67 4 -3 14 3 21 15 7
11 16 20 21 20 4 0 0 -11 -9 -25z m176 -15 c-6 -11 -15 -18 -20 -15 -4 3 -31
-18 -59 -46 -29 -29 -54 -49 -57 -47 -3 3 28 38 68 78 67 68 95 80 68 30z
m-600 12 c0 -14 -39 -46 -47 -39 -3 4 2 16 12 27 19 21 35 26 35 12z m-62 -80
c-9 -10 -13 -10 -19 0 -4 7 -3 18 3 26 9 10 13 10 19 0 4 -7 3 -18 -3 -26z
m5322 11 c0 -5 15 -24 33 -43 51 -55 147 -184 147 -197 0 -7 -25 22 -55 63
-40 54 -127 159 -143 172 -14 11 -14 12 1 12 9 0 17 -3 17 -7z m-4812 -75 c-2
-6 -10 -14 -16 -16 -7 -2 -10 2 -6 12 7 18 28 22 22 4z m-20 -40 c-5 -15 -68
-51 -68 -39 0 11 49 51 62 51 5 0 8 -5 6 -12z m-498 -28 c-12 -16 -24 -30 -26
-30 -3 0 3 14 13 30 9 17 21 30 26 30 5 0 -1 -13 -13 -30z m6010 -16 c0 -8 7
-29 16 -45 8 -17 13 -36 11 -42 -2 -7 -13 10 -25 37 -24 52 -28 81 -12 71 6
-3 10 -13 10 -21z m-6125 -15 c-9 -38 -60 -95 -70 -79 -6 10 2 23 53 78 6 7
12 18 12 23 0 5 3 9 6 9 3 0 3 -14 -1 -31z m511 -45 c-13 -12 -27 -30 -30 -41
-4 -12 -16 -23 -28 -26 -13 -4 -19 -11 -15 -20 3 -8 1 -19 -4 -24 -5 -5 -12
-23 -15 -38 -7 -41 -12 -46 -40 -39 -20 5 -24 2 -24 -16 0 -11 -4 -18 -10 -15
-5 3 -10 -1 -10 -9 0 -9 -4 -16 -9 -16 -5 0 -14 -15 -21 -32 -7 -18 -21 -42
-31 -53 -22 -26 -79 -135 -79 -153 0 -9 -7 -12 -20 -9 -21 5 -31 -14 -36 -69
-1 -17 -18 -56 -38 -87 -20 -31 -36 -69 -36 -84 0 -32 -32 -65 -55 -57 -17 7
-21 -21 -5 -31 15 -9 2 -25 -21 -25 -10 0 -19 2 -19 4 0 2 23 54 51 116 55
119 111 224 135 251 8 8 14 21 14 27 0 7 4 12 9 12 5 0 13 12 19 28 8 24 46
87 70 117 4 6 54 72 111 148 56 75 107 137 112 137 5 0 14 12 20 27 8 22 12
24 20 13 6 -11 2 -21 -15 -36z m-138 -15 c-29 -40 -68 -84 -68 -76 0 11 43 82
64 105 29 33 32 10 4 -29z m5282 -45 c0 -8 -4 -12 -10 -9 -5 3 -10 10 -10 16
0 5 5 9 10 9 6 0 10 -7 10 -16z m52 -79 c15 -25 23 -45 19 -45 -5 0 -20 17
-32 38 -31 48 -32 52 -22 52 4 0 20 -21 35 -45z m707 -24 c29 -55 30 -61 12
-52 -21 12 -71 89 -71 110 0 28 27 1 59 -58z m-6550 -15 c-11 -20 -25 -36 -30
-36 -14 0 -11 16 5 29 8 6 20 26 27 44 9 21 15 26 17 16 2 -9 -7 -33 -19 -53z
m361 18 c0 -3 -11 -20 -25 -38 -14 -18 -25 -38 -25 -44 0 -7 -6 -12 -12 -12
-7 0 -20 -15 -29 -32 -16 -32 -39 -49 -39 -28 0 7 9 24 21 38 11 15 34 48 50
75 15 26 35 47 44 47 8 0 15 -3 15 -6z m-405 -93 c-3 -6 -11 -11 -17 -11 -6 0
-6 6 2 15 14 17 26 13 15 -4z m5981 -28 c3 -10 14 -36 25 -57 23 -45 22 -51
-6 -28 -17 15 -45 73 -45 95 0 15 21 6 26 -10z m-6031 -68 c-14 -32 -29 -55
-32 -51 -4 4 6 31 22 61 38 69 44 63 10 -10z m278 -77 c-10 -18 -21 -34 -25
-36 -5 -2 -8 -12 -8 -22 0 -11 -13 -42 -30 -70 -16 -28 -30 -55 -30 -61 0 -5
-5 -15 -10 -22 -6 -7 -19 -23 -30 -37 -18 -23 -19 -24 -20 -5 0 20 20 56 47
83 7 7 13 19 13 26 0 8 7 19 15 26 8 7 15 22 15 34 0 11 9 34 19 50 11 17 18
33 15 37 -5 8 37 41 44 34 2 -2 -4 -19 -15 -37z m-340 -64 c-15 -37 -29 -61
-31 -53 -3 17 46 134 54 126 3 -2 -8 -35 -23 -73z m6092 25 c9 -17 14 -33 11
-36 -3 -3 -10 7 -16 22 -6 15 -13 32 -16 36 -3 5 -3 9 0 9 3 0 13 -14 21 -31z
m-6125 -115 c0 -8 -5 -12 -10 -9 -6 4 -8 11 -5 16 9 14 15 11 15 -7z m-50
-141 c-17 -59 -36 -119 -42 -133 -6 -14 -17 -47 -24 -75 l-13 -50 5 44 c2 24
13 69 23 100 10 31 31 96 46 144 39 125 44 100 5 -30z m255 -50 c-11 -28 -21
-41 -27 -35 -12 12 8 89 25 95 20 7 20 -11 2 -60z m-41 -105 c-8 -28 -17 -54
-22 -57 -4 -3 -14 -25 -20 -49 -7 -23 -17 -40 -21 -38 -9 6 -2 56 8 56 4 0 8
12 9 28 1 15 7 29 12 30 6 2 10 15 10 28 0 30 18 67 29 60 5 -3 2 -29 -5 -58z
m-308 -183 c-15 -58 -26 -81 -26 -53 0 23 31 121 36 115 3 -3 -2 -31 -10 -62z
m219 -51 c-8 -20 -18 -34 -21 -31 -3 3 2 24 12 47 23 51 31 36 9 -16z m-244
-70 c-9 -28 -9 -29 -10 -3 -1 14 2 29 6 32 11 12 13 2 4 -29z m221 -11 c-3
-14 -11 -38 -18 -52 -11 -21 -14 -22 -14 -7 0 29 22 96 30 91 4 -3 5 -17 2
-32z m-241 -116 c-8 -8 -11 -5 -11 9 0 27 14 41 18 19 2 -9 -1 -22 -7 -28z
m-21 -172 c-7 -59 -10 -120 -6 -136 3 -16 3 -43 -1 -61 -5 -26 -7 -28 -13 -12
-10 29 16 332 27 320 3 -3 0 -53 -7 -111z m206 57 c-12 -11 -17 7 -9 34 l8 29
3 -28 c2 -16 1 -31 -2 -35z m-219 -349 c-3 -10 -5 -2 -5 17 0 19 2 27 5 18 2
-10 2 -26 0 -35z m0 -55 c-3 -7 -5 -2 -5 12 0 14 2 19 5 13 2 -7 2 -19 0 -25z
m12 -177 c1 -86 -5 -74 -12 24 -3 48 -2 72 3 60 5 -11 9 -49 9 -84z m-335
-324 c4 -19 3 -26 -4 -22 -5 3 -10 18 -10 32 0 32 5 28 14 -10z"/>
<path d="M3867 7015 c-66 -71 -75 -84 -59 -89 11 -4 30 -2 44 3 39 15 178 25
178 13 0 -20 -126 -41 -206 -34 l-52 4 -333 -357 c-207 -221 -334 -365 -334
-377 0 -14 -24 -37 -75 -72 -56 -38 -85 -67 -115 -113 -34 -52 -53 -69 -125
-112 -47 -27 -110 -70 -141 -94 -46 -37 -57 -52 -62 -85 -8 -47 -34 -82 -91
-121 -36 -25 -47 -42 -80 -125 -43 -109 -59 -131 -90 -121 -48 15 -50 12 -59
-53 l-9 -63 -81 -70 c-45 -38 -91 -69 -102 -69 -11 -1 -45 -23 -75 -50 -51
-46 -53 -50 -37 -63 17 -12 15 -17 -35 -73 -40 -44 -58 -76 -72 -122 -12 -39
-29 -71 -47 -87 -32 -28 -47 -71 -32 -93 6 -10 6 -32 -1 -61 -12 -57 -12 -57
-31 -41 -20 16 -19 56 1 64 18 7 16 77 -3 83 -14 5 -208 -276 -531 -773 l-73
-112 20 -99 c21 -99 50 -206 97 -356 13 -43 24 -83 24 -90 -1 -22 -37 57 -44
97 -4 21 -11 46 -16 55 -33 59 -63 140 -83 223 -25 107 -37 130 -37 74 0 -76
-48 -149 -121 -181 -31 -14 -39 -24 -39 -44 0 -21 -2 -23 -11 -11 -8 11 -8 0
-3 -40 5 -30 8 -77 9 -103 0 -43 -4 -52 -36 -81 -20 -18 -41 -35 -48 -37 -9
-3 -9 -12 0 -37 16 -47 4 -91 -38 -134 l-37 -38 17 -35 c9 -20 17 -47 17 -62
0 -32 57 -149 87 -179 13 -13 23 -29 23 -37 0 -7 23 -52 51 -98 29 -46 63
-111 76 -144 13 -33 36 -75 51 -95 16 -19 51 -69 79 -110 65 -97 121 -163 144
-172 27 -10 24 8 -9 51 -47 60 -112 164 -119 190 -3 14 0 43 7 65 7 23 12 71
11 107 -1 36 3 79 9 95 17 44 60 103 81 109 27 9 24 18 -19 83 -22 31 -67 109
-102 172 -35 63 -73 131 -84 150 -12 19 -27 48 -34 64 -24 55 14 10 42 -50 15
-30 31 -61 36 -67 5 -7 30 -51 55 -99 57 -112 132 -228 145 -228 16 0 59 52
60 72 0 9 -5 20 -10 23 -6 3 -17 21 -26 38 l-16 32 21 -22 c11 -12 21 -26 21
-31 0 -5 6 -14 13 -20 17 -14 277 250 332 339 26 41 52 69 72 78 17 8 36 24
41 36 6 13 47 43 96 69 47 26 88 51 91 56 3 5 -6 25 -20 46 -28 41 -32 80 -10
108 19 26 23 20 36 -50 6 -32 14 -63 19 -68 11 -11 268 220 305 274 14 21 51
61 81 90 30 29 61 65 69 80 18 34 99 95 153 114 110 39 210 123 275 229 35 59
48 73 72 75 16 2 42 14 59 27 17 13 53 30 80 37 41 11 60 25 113 84 62 69 66
72 121 78 56 7 126 39 152 71 7 9 44 36 82 61 51 32 79 44 107 44 34 0 43 6
87 59 52 64 57 66 119 47 35 -10 49 -9 120 13 l80 24 93 -48 c51 -27 96 -53
100 -59 5 -6 26 -58 47 -115 37 -99 39 -111 38 -215 0 -89 -4 -123 -22 -171
-12 -33 -29 -89 -38 -125 -10 -43 -24 -72 -39 -85 -20 -16 -26 -36 -35 -105
-9 -73 -15 -90 -41 -116 -16 -18 -45 -67 -64 -110 -33 -76 -33 -79 -22 -145
l12 -67 -36 -59 c-20 -32 -41 -77 -47 -100 -18 -67 -55 -144 -106 -217 -35
-52 -50 -86 -63 -142 -13 -62 -23 -83 -63 -130 -39 -47 -49 -67 -60 -122 -6
-36 -21 -81 -32 -100 -25 -42 -25 -42 94 32 83 51 101 68 134 120 22 36 72 91
120 134 65 57 97 96 152 185 46 73 76 112 87 111 9 -1 32 20 51 46 58 80 151
159 201 172 28 8 44 18 44 28 0 30 41 81 92 114 75 48 97 72 123 130 17 38 35
59 71 83 27 17 87 70 133 117 47 46 96 87 109 91 13 3 58 32 100 64 42 32 104
73 136 91 32 19 76 52 96 74 29 31 50 44 91 54 30 7 70 26 92 44 25 19 61 36
96 43 31 7 101 24 156 40 72 19 115 26 154 23 61 -5 59 -4 156 -138 l55 -75 0
-83 c0 -71 4 -88 25 -122 l25 -40 -19 -39 c-20 -38 -20 -39 0 -114 l21 -76
-40 -73 c-35 -63 -41 -85 -47 -158 -6 -77 -6 -83 8 -65 13 16 17 17 31 6 13
-11 17 -11 22 2 3 8 18 17 33 20 21 5 30 15 41 46 8 25 17 38 26 34 10 -4 8
-11 -8 -33 -11 -16 -21 -37 -22 -47 -3 -25 -27 -73 -38 -73 -4 0 -8 -11 -8
-25 0 -32 -31 -34 -45 -3 -6 12 -17 22 -25 24 -8 1 -21 3 -28 5 -8 3 -34 -29
-62 -76 -43 -72 -47 -84 -41 -120 6 -34 10 -40 30 -37 22 2 22 0 -15 -65 -20
-38 -44 -77 -52 -88 -13 -19 -14 -19 -9 8 2 15 2 27 0 27 -2 0 -20 -12 -39
-28 -31 -24 -34 -32 -34 -79 0 -48 -3 -53 -39 -82 -32 -26 -40 -39 -46 -78 -3
-27 -17 -81 -31 -121 -13 -40 -24 -82 -24 -93 0 -11 -20 -39 -44 -62 -47 -46
-66 -75 -66 -105 0 -15 5 -18 28 -14 l27 5 -32 -35 c-27 -28 -33 -42 -33 -80
0 -45 -1 -46 -45 -62 -39 -15 -45 -22 -45 -46 0 -22 -10 -36 -50 -65 -33 -24
-52 -47 -58 -69 -13 -44 -75 -128 -116 -157 -33 -23 -34 -25 -41 -111 -4 -51
-12 -88 -18 -88 -6 0 -7 -3 -4 -6 5 -6 63 18 139 57 24 12 23 12 24 -15 1 -14
-8 -34 -20 -45 -22 -20 -270 -133 -318 -145 -20 -4 -29 -14 -33 -34 -4 -15
-12 -44 -20 -65 -7 -20 -9 -37 -4 -37 15 0 10 -16 -9 -26 -10 -5 -38 -31 -64
-59 l-45 -50 8 -78 c8 -73 7 -82 -19 -142 -27 -64 -28 -65 -87 -85 l-61 -20
-56 30 -56 30 -28 -69 c-28 -68 -29 -69 -47 -50 -10 10 -22 19 -27 19 -5 0
-10 10 -12 22 -3 19 -18 26 -118 51 -105 26 -119 32 -160 71 -25 24 -74 65
-110 91 -36 26 -71 58 -78 71 -10 20 -21 24 -60 25 -52 0 -91 12 -76 22 6 3
31 5 57 3 59 -3 53 8 -34 66 -64 43 -69 44 -205 61 -196 25 -348 50 -352 59
-2 5 -18 8 -35 8 -24 0 -28 3 -19 12 8 8 18 9 36 0 13 -6 33 -8 45 -5 12 3 27
1 34 -5 13 -11 82 -10 93 1 15 15 46 6 51 -14 4 -14 12 -19 24 -16 11 3 19 2
19 -2 0 -4 28 -8 63 -9 34 0 83 -3 110 -5 50 -5 53 -2 35 38 -16 36 -89 66
-170 69 -73 4 -168 25 -168 38 0 8 80 4 174 -8 l39 -5 -34 39 c-22 25 -63 53
-114 78 -44 21 -98 51 -121 67 l-40 28 -80 -27 c-60 -21 -99 -28 -162 -28 -77
-1 -84 1 -102 24 -11 14 -29 50 -41 80 -21 55 -22 69 -15 273 l1 49 -65 28
c-36 15 -64 32 -64 36 1 5 5 18 8 30 5 17 -2 24 -43 44 -27 12 -51 31 -54 40
-3 11 -25 24 -56 35 -36 12 -56 25 -65 44 -8 14 -42 48 -77 75 -52 40 -79 53
-151 72 -68 17 -93 28 -109 49 -17 21 -27 25 -48 20 -24 -5 -35 2 -83 55 -40
43 -63 60 -81 60 -14 0 -62 16 -106 37 -45 20 -84 34 -86 31 -3 -3 -9 -25 -13
-49 -7 -40 -11 -45 -44 -53 -33 -8 -37 -13 -43 -53 -5 -36 -10 -43 -29 -43
-21 0 -24 -6 -30 -61 -6 -46 -4 -64 6 -70 7 -4 -22 -5 -63 -3 -70 5 -77 4 -81
-14 -4 -14 1 -24 16 -32 12 -6 28 -20 34 -31 12 -19 12 -19 -13 -3 -14 9 -25
20 -25 25 0 5 -4 9 -9 9 -6 0 -13 -21 -17 -47 -3 -27 -10 -53 -15 -59 -6 -7
-1 -18 12 -30 16 -14 23 -15 26 -6 3 6 11 12 18 12 17 0 29 -32 14 -41 -12 -7
100 -125 149 -156 15 -10 33 -26 41 -36 7 -10 19 -16 26 -13 8 3 21 -6 29 -20
9 -13 22 -24 29 -24 21 -1 114 -75 110 -87 -3 -8 5 -13 21 -13 14 0 26 -4 26
-10 0 -5 6 -10 14 -10 18 0 48 -29 41 -40 -8 -12 42 -41 59 -34 10 4 27 -6 45
-25 16 -17 42 -38 58 -46 23 -12 25 -15 8 -15 -22 0 -285 173 -425 280 -47 35
-141 119 -208 185 l-124 121 -81 -24 c-54 -16 -121 -26 -194 -31 l-111 -6 108
-138 c65 -83 107 -144 103 -153 -3 -8 2 -25 11 -39 21 -31 20 -35 -4 -35 -11
0 -38 16 -60 36 -27 25 -45 34 -59 29 -15 -4 -34 11 -87 70 -46 51 -70 71 -75
63 -6 -9 -10 -8 -15 5 -4 11 -13 16 -22 12 -8 -3 -26 2 -39 11 -32 21 -42 10
-17 -19 94 -105 114 -131 114 -140 0 -6 -35 24 -79 67 -58 58 -84 77 -100 74
-22 -3 -21 -5 14 -43 29 -32 35 -36 32 -18 -4 19 -2 21 13 13 10 -6 29 -25 41
-42 13 -18 48 -56 79 -84 30 -29 64 -62 75 -74 11 -13 77 -79 146 -149 69 -69
131 -136 137 -148 16 -30 15 -58 -3 -73 -11 -9 -12 -17 -4 -34 17 -32 61 -76
77 -76 21 0 70 -38 77 -59 3 -10 39 -39 80 -65 70 -44 95 -76 60 -76 -22 0
-19 -10 12 -42 17 -18 37 -28 55 -28 18 0 53 -17 89 -41 34 -23 94 -56 134
-74 45 -21 76 -41 79 -53 4 -11 19 -23 34 -27 55 -13 150 -75 166 -107 15 -28
15 -32 -2 -44 -15 -11 -12 -15 28 -33 25 -11 54 -21 64 -21 18 0 18 1 -3 24
l-22 24 54 6 c48 6 59 4 92 -18 52 -35 112 -53 127 -38 17 17 73 14 157 -8 80
-21 97 -19 81 10 -9 17 -6 21 15 26 38 10 131 -12 201 -46 34 -17 71 -30 82
-30 11 0 33 -7 48 -15 16 -8 38 -15 49 -15 15 0 16 -3 7 -12 -9 -9 -22 -9 -57
0 -25 7 -53 12 -63 12 -26 0 -23 -30 2 -34 12 -2 57 -12 101 -22 44 -10 85
-17 90 -15 12 5 38 4 125 -6 54 -7 67 -12 75 -31 12 -27 86 -57 167 -67 87
-11 181 11 118 28 -27 7 -25 33 3 51 26 17 218 22 422 11 109 -6 137 -4 175
10 25 9 66 21 92 25 46 8 245 53 473 106 120 28 122 28 275 86 123 46 153 55
201 63 19 3 85 35 145 70 60 36 119 68 131 71 12 3 25 15 28 25 5 15 16 19 50
19 34 0 49 6 76 32 19 17 54 40 79 51 61 27 260 165 260 181 0 19 51 62 92 77
23 8 38 20 40 32 2 13 20 26 56 39 29 11 60 30 68 43 9 13 40 38 69 54 56 32
150 121 160 152 3 10 29 35 56 55 28 20 98 89 156 153 58 64 111 118 117 120
15 6 36 28 36 38 0 5 15 27 33 49 19 21 37 51 40 66 8 32 51 85 75 92 10 4 42
44 72 91 46 70 60 84 81 85 52 0 195 172 220 262 5 22 8 42 6 45 -3 2 -21 -25
-40 -60 -20 -35 -44 -70 -53 -78 -15 -12 -16 -11 -9 11 4 14 14 37 21 52 8 15
14 50 14 78 0 39 5 54 21 68 18 15 89 141 89 157 0 4 -5 3 -11 -1 -21 -12 -4
87 24 146 30 65 57 188 57 263 0 30 7 70 15 90 8 19 24 76 35 125 10 49 24
101 30 116 7 19 6 42 -5 82 -11 41 -12 67 -5 98 14 61 12 73 -12 80 -86 21
-303 217 -423 381 -38 52 -73 95 -76 95 -12 0 -21 -54 -29 -195 -5 -77 -16
-178 -25 -225 -8 -47 -15 -97 -15 -112 0 -16 -5 -28 -10 -28 -11 0 -7 42 17
155 8 39 16 120 18 180 2 61 7 147 10 192 l7 82 -44 68 c-24 37 -70 111 -101
165 -43 73 -61 95 -74 92 -13 -3 -33 18 -73 78 -43 63 -68 90 -112 117 -54 34
-78 61 -122 141 -43 79 -118 170 -144 176 -54 12 -68 17 -94 36 -15 10 -37 36
-49 58 -20 35 -33 43 -125 80 -130 52 -135 59 -109 122 5 14 -2 18 -42 23 -26
3 -57 8 -69 10 -26 6 -154 156 -154 181 0 11 -22 44 -49 74 -46 51 -50 54 -63
37 -13 -17 -15 -17 -36 6 -13 14 -31 23 -40 20 -10 -2 -32 12 -56 36 -24 25
-59 47 -89 57 -40 13 -54 24 -79 65 -20 33 -44 57 -72 70 -22 12 -57 33 -76
48 -19 14 -40 25 -47 23 -7 -1 -19 8 -28 22 -9 14 -30 28 -47 32 -17 3 -40 15
-52 25 -11 11 -25 19 -32 19 -6 0 -14 7 -18 15 -3 8 -1 15 5 15 6 0 7 5 4 10
-4 6 -12 10 -18 9 -25 -3 -37 1 -34 12 1 6 -7 16 -18 22 -11 7 -22 14 -25 17
-5 6 -183 123 -391 258 -84 55 -136 82 -155 82 -84 0 -145 40 -194 126 -35 61
-39 62 -145 42 -56 -10 -67 -9 -100 8 -29 15 -57 48 -71 82 -1 1 -21 -3 -45
-9 -39 -10 -50 -9 -83 6 -40 19 -122 114 -132 153 -4 12 -9 22 -13 21 -3 0
-41 -38 -84 -84z m62 -252 c7 7 15 6 26 -3 14 -12 14 -15 -1 -31 -9 -10 -13
-25 -9 -37 9 -30 -11 -36 -44 -13 -16 12 -34 21 -40 21 -6 0 -15 9 -21 20 -9
16 -17 18 -61 13 -41 -5 -51 -3 -47 8 3 9 17 13 45 11 23 -2 44 1 47 6 3 5 26
6 50 2 26 -4 49 -3 55 3z m400 -44 c49 0 53 -2 29 -11 -19 -6 -28 -17 -28 -31
0 -29 -33 -49 -68 -41 -29 8 -62 39 -62 61 0 7 -6 13 -12 14 -7 0 -4 4 7 9 11
5 33 7 49 5 16 -3 54 -5 85 -6z m-589 -103 c0 -3 -4 -8 -10 -11 -5 -3 -10 -1
-10 4 0 6 5 11 10 11 6 0 10 -2 10 -4z m450 -116 c-20 -13 -33 -13 -25 0 3 6
14 10 23 10 15 0 15 -2 2 -10z m906 -106 c49 -3 107 -30 101 -47 -3 -7 -11
-10 -18 -8 -8 3 -31 4 -53 3 -29 -1 -37 2 -33 12 9 23 -50 32 -72 12 -34 -31
-91 -12 -91 30 0 37 34 45 84 21 23 -11 60 -21 82 -23z m-1636 -129 c-7 -9
-15 -13 -17 -11 -7 7 7 26 19 26 6 0 6 -6 -2 -15z m2614 -602 c40 -51 45 -66
19 -56 -23 9 -52 44 -53 64 0 8 -5 20 -12 27 -8 8 -8 12 -1 12 6 0 27 -21 47
-47z m306 -410 c0 -7 -3 -13 -6 -13 -12 0 -33 35 -33 55 -1 18 1 18 19 -5 11
-14 20 -31 20 -37z m-60 5 c0 -10 -33 2 -42 16 -12 18 16 27 30 9 6 -9 12 -20
12 -25z m-62 -29 c13 -22 21 -43 19 -46 -6 -5 -57 67 -57 79 0 19 17 5 38 -33z
m264 -21 c-7 -7 -12 -8 -12 -2 0 14 12 26 19 19 2 -3 -1 -11 -7 -17z m25 -56
c11 -7 43 -115 43 -147 0 -39 -26 -4 -41 56 -9 35 -20 72 -24 82 -7 18 2 22
22 9z m-26 -197 c7 -30 9 -58 6 -62 -4 -3 -20 -6 -36 -6 -17 0 -30 -3 -29 -6
3 -26 -6 -19 -32 26 -32 56 -35 63 -22 63 4 0 16 -13 25 -30 20 -34 42 -40 34
-11 -3 12 1 22 10 26 15 5 14 29 -2 80 -6 18 -5 18 14 -3 11 -12 25 -47 32
-77z m98 -47 c5 -13 6 -27 3 -32 -6 -10 -20 19 -21 42 -1 20 9 14 18 -10z
m-139 -156 c-7 -13 -9 -8 -9 23 0 35 1 37 10 17 6 -15 5 -30 -1 -40z m530 13
c0 -8 -4 -15 -10 -15 -5 0 -7 7 -4 15 4 8 8 15 10 15 2 0 4 -7 4 -15z m-235
-115 c14 0 25 -4 25 -10 0 -14 -54 -12 -68 2 -7 7 -12 23 -12 38 l1 25 15 -27
c10 -19 23 -28 39 -28z m-266 11 c6 -10 21 -21 35 -25 24 -6 40 -31 30 -47 -3
-5 -20 -9 -38 -9 -28 0 -34 4 -40 28 -3 15 -8 37 -12 50 -8 27 11 30 25 3z
m563 -50 c2 -33 -1 -55 -8 -58 -15 -5 -23 39 -16 89 7 53 20 36 24 -31z m141
17 c-2 -5 -3 -29 -3 -55 l0 -48 -25 29 c-14 17 -23 36 -20 44 3 7 5 20 5 29 0
9 8 13 23 11 12 -2 21 -6 20 -10z m-713 -140 c0 -10 5 -18 10 -18 6 0 11 8 11
18 1 17 15 -34 25 -93 l5 -30 -31 35 c-23 25 -33 31 -37 21 -4 -9 -10 -3 -19
19 -19 43 -18 67 3 79 20 11 33 -2 33 -31z m309 -120 c6 -95 2 -123 -15 -96
-4 7 -9 62 -11 123 -5 142 16 121 26 -27z m71 82 c0 -13 -1 -13 -10 0 -5 8
-10 22 -10 30 0 13 1 13 10 0 5 -8 10 -22 10 -30z m-5120 -5 c0 -8 -4 -15 -10
-15 -5 0 -7 7 -4 15 4 8 8 15 10 15 2 0 4 -7 4 -15z m5662 -152 c2 -24 1 -43
-3 -43 -9 0 -19 38 -19 75 0 43 17 18 22 -32z m-390 -5 c3 -29 9 -61 13 -70 4
-11 3 -18 -3 -18 -13 0 -32 63 -32 108 0 52 17 37 22 -20z m-5228 -67 c15 -17
12 -31 -6 -31 -13 0 -39 73 -32 89 5 12 9 9 15 -13 4 -15 15 -36 23 -45z
m5196 -13 c0 -25 -3 -29 -10 -18 -13 20 -13 50 0 50 6 0 10 -15 10 -32z m-230
-2 c0 -14 -4 -28 -10 -31 -5 -3 -10 0 -10 9 0 8 -3 21 -6 30 -4 11 -1 16 10
16 10 0 16 -9 16 -24z m-175 -6 c12 19 25 -1 25 -39 0 -24 -6 -44 -17 -52 -15
-13 -16 -11 -10 13 6 23 4 27 -13 25 -11 -1 -20 -7 -20 -14 0 -7 -7 -13 -15
-13 -11 0 -15 11 -15 43 0 53 6 60 35 41 16 -10 25 -12 30 -4z m329 2 c4 -10
0 -36 -8 -58 l-15 -39 0 35 c-1 19 -4 45 -7 58 -8 27 22 32 30 4z m143 -53
c-5 -40 -13 -57 -21 -48 -9 8 7 89 17 89 6 0 7 -17 4 -41z m-90 -106 c-3 -10
-5 -2 -5 17 0 19 2 27 5 18 2 -10 2 -26 0 -35z m-390 0 c-3 -10 -5 -4 -5 12 0
17 2 24 5 18 2 -7 2 -21 0 -30z m1060 -45 c-3 -40 -8 -86 -12 -103 -3 -16 -12
-61 -20 -100 -8 -38 -17 -87 -20 -108 -3 -21 -12 -53 -19 -72 -8 -19 -11 -35
-5 -35 12 0 12 -35 0 -58 -5 -9 -18 -45 -27 -79 -10 -35 -21 -63 -26 -63 -4 0
-8 -15 -8 -33 0 -18 -7 -42 -15 -53 -8 -10 -15 -27 -15 -37 0 -21 -63 -172
-125 -302 -24 -49 -48 -104 -55 -121 -6 -18 -19 -40 -28 -51 -9 -10 -30 -43
-46 -73 -16 -30 -35 -62 -42 -71 -8 -8 -14 -23 -14 -32 0 -8 -15 -35 -33 -59
-18 -24 -72 -99 -121 -168 -48 -69 -93 -129 -100 -135 -6 -5 -27 -30 -46 -55
-19 -25 -48 -58 -63 -75 -25 -26 -27 -27 -17 -6 7 13 37 56 66 94 30 39 54 75
54 80 0 5 7 7 15 3 9 -3 15 0 15 8 0 8 27 50 59 94 33 44 67 95 77 114 9 18
24 40 33 48 10 8 29 40 44 70 31 64 44 84 75 123 12 16 22 34 22 42 0 7 7 15
15 19 8 3 15 12 15 21 0 8 4 23 9 33 24 46 34 81 36 122 1 25 16 82 32 127 31
88 50 119 39 66 -18 -93 -18 -98 -9 -88 19 19 95 249 84 253 -14 5 -14 45 1
77 8 18 14 22 19 13 12 -19 33 36 25 66 -3 13 -13 32 -23 41 -15 16 -14 24 11
123 14 59 27 121 27 137 0 17 4 39 8 49 12 32 34 -35 29 -93 -1 -28 0 -51 3
-51 8 0 29 93 30 133 0 9 5 17 11 17 6 0 9 3 6 6 -3 3 0 29 8 57 8 29 14 76
14 105 0 28 3 52 6 52 4 0 4 -33 1 -72z m-621 6 c-4 -9 -9 -15 -11 -12 -3 3
-3 13 1 22 4 9 9 15 11 12 3 -3 3 -13 -1 -22z m-356 -118 c-11 -50 -27 -104
-35 -121 l-13 -30 -1 26 c-1 15 8 55 18 90 11 35 23 82 27 104 8 49 17 66 22
41 2 -10 -6 -59 -18 -110z m-204 -52 c5 -19 2 -29 -9 -36 -9 -5 -14 -15 -11
-22 3 -8 1 -17 -5 -21 -8 -4 -8 -12 0 -26 8 -16 5 -37 -17 -97 -15 -42 -32
-84 -39 -92 -6 -8 -27 -46 -45 -85 l-34 -70 -8 59 c-6 43 -4 63 6 78 12 16 14
17 19 3 11 -27 24 -16 47 37 20 46 21 57 11 107 -12 60 -3 112 27 164 21 35
50 35 58 1z m-4608 -39 c4 -18 -13 -35 -35 -35 -13 0 -18 41 -7 52 11 12 39 1
42 -17z m4691 8 c-3 -47 -16 -67 -52 -79 -20 -7 -37 -10 -37 -6 0 18 67 102
82 102 4 0 8 -8 7 -17z m842 -174 c-6 -20 -9 -44 -5 -52 4 -12 -40 -107 -49
-107 -1 0 -3 21 -3 48 -1 30 1 40 6 27 5 -15 10 -5 20 40 7 33 17 64 22 70 4
5 9 20 9 35 l2 25 4 -25 c3 -13 0 -41 -6 -61z m-61 -211 c0 -7 -5 -20 -10 -28
-8 -12 -10 -9 -10 13 0 15 5 27 10 27 6 0 10 -6 10 -12z m-6360 -72 c0 -6 -7
-2 -15 8 -8 11 -15 25 -15 30 0 6 7 2 15 -8 8 -11 15 -25 15 -30z m6411 11
c-11 -29 -31 -45 -31 -25 0 14 32 59 38 54 1 -2 -2 -15 -7 -29z m-71 3 c0 -5
-5 -10 -11 -10 -5 0 -7 5 -4 10 3 6 8 10 11 10 2 0 4 -4 4 -10z m380 -24 c0
-8 -4 -18 -10 -21 -5 -3 -10 3 -10 14 0 12 5 21 10 21 6 0 10 -6 10 -14z
m-1138 -18 c-5 -7 -13 -30 -17 -51 -4 -20 -11 -40 -15 -42 -5 -3 -16 -30 -25
-60 -10 -35 -21 -55 -30 -55 -8 0 -15 2 -15 4 0 18 52 152 64 165 9 10 16 22
16 27 0 13 22 35 28 29 3 -2 0 -10 -6 -17z m-5554 -15 c-1 -5 6 -29 16 -56 27
-69 15 -67 -16 3 -20 46 -23 60 -12 60 8 0 13 -3 12 -7z m6352 -59 c0 -3 -12
-20 -27 -38 -17 -19 -24 -24 -19 -11 5 11 11 28 13 38 5 15 33 25 33 11z m220
-45 c0 -3 -7 -25 -15 -48 -8 -23 -12 -47 -9 -54 6 -16 -87 -189 -104 -195 -7
-2 -10 2 -6 12 4 11 2 15 -8 11 -7 -3 -26 -35 -42 -70 -30 -69 -85 -149 -110
-158 -9 -4 6 37 40 110 29 63 79 173 110 244 34 78 62 129 71 129 8 0 22 13
31 30 15 27 18 28 30 13 6 -9 12 -20 12 -24z m-6310 -219 c0 -5 -2 -10 -4 -10
-3 0 -8 5 -11 10 -3 6 -1 10 4 10 6 0 11 -4 11 -10z m4960 -182 c-1 -19 -27
-51 -34 -40 -9 14 5 52 20 52 8 0 14 -6 14 -12z m1227 -105 c-14 -26 -30 -67
-37 -91 -8 -23 -19 -47 -27 -53 -17 -15 -16 -1 2 31 16 29 19 60 6 60 -6 0
-29 -29 -52 -65 -23 -36 -44 -63 -47 -60 -8 8 60 114 111 172 26 30 47 64 47
77 0 35 15 42 18 8 2 -18 -7 -51 -21 -79z m-1293 19 c6 -10 -22 -47 -30 -40
-3 4 -3 16 1 27 6 21 20 27 29 13z m1431 -24 c-11 -48 -25 -82 -31 -75 -7 6
24 107 33 107 2 0 1 -15 -2 -32z m-89 -25 c-8 -15 -15 -22 -16 -15 0 17 20 55
27 49 2 -3 -2 -18 -11 -34z m-416 23 c0 -3 -4 -8 -10 -11 -5 -3 -10 -1 -10 4
0 6 5 11 10 11 6 0 10 -2 10 -4z m369 -128 c-8 -14 -14 -18 -17 -10 -4 13 17
46 25 38 3 -2 -1 -15 -8 -28z m-1358 -30 c10 -18 7 -25 -20 -48 -17 -15 -31
-32 -31 -37 0 -5 -11 -16 -25 -23 -13 -7 -29 -27 -35 -44 -8 -23 -13 -27 -19
-17 -15 23 12 97 30 85 19 -11 40 18 34 47 -5 21 -1 31 17 43 29 21 35 20 49
-6z m1360 -141 c-8 -8 -11 -7 -11 4 0 20 13 34 18 19 3 -7 -1 -17 -7 -23z
m-265 -100 c-6 -17 -37 -58 -70 -90 -33 -34 -62 -73 -67 -92 -8 -27 -34 -53
-45 -43 -1 2 22 46 52 98 30 52 60 107 66 123 7 15 18 27 24 27 6 0 17 7 24
15 20 24 30 -1 16 -38z m-775 15 c-5 -10 -26 -33 -46 -52 -62 -58 -68 -65
-115 -129 -50 -68 -114 -128 -265 -246 -111 -87 -332 -235 -349 -234 -6 0 -1
5 12 11 27 13 31 44 5 33 -10 -4 -24 -9 -30 -12 -7 -3 -13 0 -13 6 0 7 28 26
63 42 64 31 132 74 202 129 22 18 66 48 97 68 83 54 136 100 298 259 80 79
146 143 148 143 1 0 -2 -8 -7 -18z m-487 -7 c-8 -19 -44 -40 -44 -26 0 8 38
41 47 41 1 0 0 -7 -3 -15z m-4050 -86 c-6 -11 -24 -2 -24 11 0 5 7 7 15 4 8
-4 12 -10 9 -15z m306 1 c0 -5 -2 -10 -4 -10 -3 0 -8 5 -11 10 -3 6 -1 10 4
10 6 0 11 -4 11 -10z m-220 -69 c45 -34 70 -59 70 -71 0 -5 -7 -7 -15 -4 -8 4
-15 11 -15 18 0 6 -18 22 -41 36 -22 14 -45 33 -51 44 -12 21 -4 18 52 -23z
m5440 -5 c-18 -30 -161 -178 -167 -173 -7 8 62 109 111 163 35 38 53 51 60 44
7 -7 6 -18 -4 -34z m-5877 -132 c82 -90 98 -129 23 -55 -23 23 -47 41 -52 40
-22 -4 -33 4 -62 45 -38 53 -39 56 -9 56 15 0 47 -27 100 -86z m572 16 c-3 -5
-12 -7 -20 -3 -21 7 -19 13 6 13 11 0 18 -4 14 -10z m675 -23 c0 -5 -4 -5 -10
-2 -5 3 -10 14 -10 23 0 15 2 15 10 2 5 -8 10 -19 10 -23z m3919 -14 c-26 -32
-61 -64 -65 -60 -5 4 64 77 73 77 3 0 -1 -8 -8 -17z m-4515 -18 c11 -8 16 -18
12 -22 -3 -4 -16 3 -28 15 -25 25 -13 29 16 7z m80 -60 c16 -14 39 -25 50 -25
12 0 27 -9 34 -20 10 -17 10 -20 -6 -20 -11 0 -27 9 -37 20 -10 11 -23 20 -30
20 -6 0 -22 11 -35 25 -30 32 -14 32 24 0z m-364 -15 c0 -5 -2 -10 -4 -10 -3
0 -8 5 -11 10 -3 6 -1 10 4 10 6 0 11 -4 11 -10z m680 -21 c0 -6 -7 -6 -20 1
-11 6 -20 15 -20 21 0 6 7 6 20 -1 11 -6 20 -15 20 -21z m-74 -16 c-7 -7 -26
7 -26 19 0 6 6 6 15 -2 9 -7 13 -15 11 -17z m-91 -43 c28 -22 33 -30 19 -30
-23 1 -48 19 -57 43 -9 23 -6 22 38 -13z m-469 -2 c5 -7 1 -9 -9 -5 -19 7 -24
-17 -7 -28 6 -3 10 -11 10 -17 0 -6 -9 -3 -20 7 -11 10 -20 25 -20 34 0 19 36
25 46 9z m4394 -2 c0 -2 -12 -12 -27 -21 l-28 -18 19 21 c17 20 36 29 36 18z
m-3740 -28 c29 -21 39 -38 22 -38 -4 0 -23 13 -42 30 -40 34 -24 41 20 8z
m4220 7 c0 -8 -4 -15 -10 -15 -5 0 -10 7 -10 15 0 8 5 15 10 15 6 0 10 -7 10
-15z m-5075 -21 c31 -34 32 -48 3 -33 -30 15 -58 40 -58 51 0 17 32 7 55 -18z
m1240 16 c7 -12 -2 -12 -30 0 -19 8 -19 9 2 9 12 1 25 -3 28 -9z m-462 -32
c58 -40 61 -63 4 -26 -19 13 -43 28 -53 35 -18 11 -18 12 -1 12 11 1 33 -9 50
-21z m218 -9 c27 -12 49 -25 49 -30 0 -13 -6 -11 -50 11 -22 11 -48 20 -59 20
-11 0 -23 5 -26 10 -10 17 34 11 86 -11z m315 -31 c4 -5 -4 -8 -17 -6 -12 1
-24 8 -26 15 -5 14 34 6 43 -9z m-414 -37 c11 -11 38 -23 59 -26 22 -4 39 -10
39 -14 0 -4 10 -8 22 -8 13 -1 24 -7 26 -12 5 -16 100 -61 116 -55 8 3 17 0
21 -5 3 -6 22 -18 41 -26 19 -8 34 -19 34 -25 0 -7 -15 -4 -37 8 -21 11 -58
27 -83 37 -25 9 -56 23 -70 31 -14 7 -36 18 -50 25 -14 6 -38 17 -53 25 -16 8
-34 14 -40 14 -17 1 -75 50 -59 50 7 0 22 -9 34 -19z m-672 -77 c31 -28 69
-58 85 -67 40 -20 74 -57 53 -57 -47 0 -177 72 -178 98 0 7 -13 33 -30 57 -53
77 -40 71 70 -31z m5010 73 c0 -17 -44 -59 -53 -50 -11 11 -8 22 13 43 23 23
40 26 40 7z m-5380 -62 c7 -8 8 -15 2 -15 -5 0 -15 7 -22 15 -7 8 -8 15 -2 15
5 0 15 -7 22 -15z m968 -42 c20 -9 43 -15 50 -14 12 2 62 -18 139 -57 17 -9
36 -26 42 -39 13 -28 7 -29 -22 -3 -12 11 -28 20 -37 19 -22 -3 -215 85 -226
103 -8 13 13 10 54 -9z m466 -18 c23 -21 62 -40 125 -59 79 -24 89 -30 74 -41
-14 -11 -8 -14 47 -26 35 -8 65 -20 68 -26 2 -7 -3 -13 -12 -13 -9 0 -16 4
-16 10 0 5 -23 12 -50 16 -28 4 -53 11 -56 15 -3 5 -13 9 -22 9 -25 1 -94 35
-86 43 4 4 -2 10 -12 13 -10 4 -26 12 -34 19 -8 6 -36 19 -62 29 -52 19 -66
46 -22 43 14 -1 40 -16 58 -32z m141 -23 c-3 -3 -11 0 -18 7 -9 10 -8 11 6 5
10 -3 15 -9 12 -12z m-229 -60 c-3 -2 5 -13 17 -23 12 -10 16 -18 10 -19 -38
-1 26 -40 88 -54 15 -3 30 -13 33 -22 5 -14 1 -15 -31 -9 -48 9 -109 40 -116
60 -4 8 -18 15 -32 15 -14 0 -24 4 -22 9 1 5 -7 17 -18 25 -20 15 -20 15 2 16
12 0 24 4 27 9 3 5 15 7 26 4 12 -3 19 -8 16 -11z m-363 -79 c16 -8 27 -17 24
-19 -5 -6 -97 33 -97 41 0 8 36 -3 73 -22z m827 7 c0 -5 7 -10 15 -10 8 0 15
-5 15 -10 0 -14 -51 -2 -70 16 -12 12 -11 14 13 14 15 0 27 -4 27 -10z m-850
-70 c22 -11 40 -24 40 -29 0 -6 -20 2 -45 16 -41 23 -54 33 -40 33 3 0 24 -9
45 -20z m822 -11 c32 -5 68 -13 80 -18 13 -5 48 -12 78 -16 75 -9 212 -43 224
-55 19 -19 -58 -10 -173 20 -130 34 -138 35 -122 16 15 -18 108 -43 211 -56
46 -5 89 -10 94 -10 5 0 6 -3 2 -7 -15 -15 -162 -1 -235 23 -41 13 -82 22 -92
19 -10 -4 -29 1 -43 10 -14 9 -33 15 -44 13 -10 -2 -27 3 -36 11 -9 8 -31 14
-49 13 -17 0 -40 6 -49 15 -11 10 -26 13 -43 9 -26 -7 -35 8 -10 17 15 6 38 3
69 -9 13 -5 17 -4 13 4 -9 13 20 22 48 16 11 -3 46 -9 77 -15z m-583 -3 c21
-13 11 -26 -20 -26 -32 0 -69 15 -69 29 0 10 72 7 89 -3z m-570 -111 c37 -24
78 -46 93 -50 26 -7 70 -45 52 -45 -12 0 -126 67 -194 114 -75 52 -33 36 49
-19z m-270 -35 c53 -49 35 -52 -49 -10 -67 34 -76 50 -27 50 23 -1 44 -12 76
-40z m1941 13 c8 -4 21 -5 29 -4 8 2 30 -1 50 -4 31 -6 33 -9 16 -15 -19 -8
-102 -5 -172 6 -55 8 -41 32 15 27 26 -3 54 -7 62 -10z m-1215 -103 c50 -28
97 -58 105 -66 29 -29 -11 -13 -117 47 -59 34 -127 73 -150 86 -24 13 -43 28
-43 34 0 11 76 -26 205 -101z m-275 0 c0 -5 -2 -10 -4 -10 -3 0 -8 5 -11 10
-3 6 -1 10 4 10 6 0 11 -4 11 -10z m746 -159 c42 -21 52 -30 36 -30 -27 -1
-102 35 -102 49 0 13 -1 14 66 -19z m-11 -121 c3 -5 1 -10 -4 -10 -6 0 -11 5
-11 10 0 6 2 10 4 10 3 0 8 -4 11 -10z m2045 -200 c-8 -5 -26 -10 -40 -10 -20
0 -22 2 -10 10 8 5 26 10 40 10 20 0 22 -2 10 -10z m-120 -20 c27 -17 -3 -28
-97 -35 -89 -7 -92 -6 -86 13 3 14 15 22 37 25 62 8 131 6 146 -3z m-424 -106
c-22 -13 -43 -14 -100 -8 -63 7 -67 9 -36 15 19 3 64 7 100 7 64 1 65 1 36
-14z m-350 -5 c4 -7 -11 -9 -52 -4 -77 10 -81 15 -11 15 31 0 59 -5 63 -11z
m174 1 c0 -5 -7 -7 -15 -4 -8 4 -15 8 -15 10 0 2 7 4 15 4 8 0 15 -4 15 -10z"/>
<path d="M7160 6720 c0 -9 70 -124 91 -148 19 -23 21 -6 4 28 -18 36 -84 130
-91 130 -2 0 -4 -4 -4 -10z"/>
<path d="M3848 4162 c-39 -3 -51 -8 -67 -31 -11 -16 -35 -34 -53 -42 -18 -7
-54 -26 -79 -41 -43 -26 -47 -32 -53 -77 l-6 -49 -71 -16 c-39 -9 -75 -16 -80
-16 -5 0 -33 -16 -63 -35 -38 -24 -56 -43 -60 -62 -6 -24 -17 -32 -69 -52 -50
-19 -81 -42 -162 -120 -55 -52 -120 -126 -145 -163 -45 -66 -45 -67 -101 -73
-49 -6 -58 -10 -74 -38 -10 -18 -24 -36 -32 -40 -7 -4 -13 -21 -13 -37 0 -25
-8 -33 -59 -60 -77 -41 -82 -55 -34 -97 75 -65 99 -81 159 -103 56 -20 63 -26
84 -70 21 -44 30 -53 94 -83 48 -23 89 -52 124 -89 40 -41 69 -62 113 -78 52
-20 63 -29 92 -76 17 -30 35 -54 39 -54 9 0 81 109 97 148 7 18 17 29 22 26
15 -9 10 99 -6 119 -12 17 -8 26 45 92 68 86 120 208 127 300 4 47 11 66 33
90 24 26 28 40 33 115 6 93 24 146 69 202 16 21 32 54 35 75 3 21 26 79 49
130 24 50 44 99 44 108 0 9 11 51 26 92 24 73 24 77 7 92 -12 11 -33 15 -65
13z"/>
<path d="M5770 3750 c-27 -24 -52 -37 -62 -34 -9 3 -19 0 -23 -6 -4 -6 -46
-30 -95 -55 -63 -31 -94 -54 -108 -77 -36 -58 -61 -78 -96 -78 -29 0 -38 -7
-73 -57 -32 -46 -50 -61 -84 -73 -39 -13 -47 -22 -71 -72 -25 -52 -83 -108
-112 -108 -12 0 -184 -167 -287 -278 -42 -45 -105 -104 -141 -131 -86 -65
-124 -112 -184 -222 -52 -97 -59 -103 -117 -114 -42 -8 -54 -20 -38 -38 7 -10
-19 -40 -104 -120 -62 -59 -117 -107 -122 -107 -4 0 -25 -5 -46 -11 -30 -8
-42 -18 -54 -46 -8 -20 -12 -47 -8 -61 10 -40 119 -138 171 -152 36 -10 49
-21 74 -61 16 -26 42 -55 57 -63 15 -8 40 -30 55 -49 21 -28 36 -36 75 -42 70
-10 149 -70 180 -137 26 -56 37 -68 66 -68 10 0 35 -11 55 -25 20 -14 40 -25
44 -25 18 0 127 152 152 211 22 53 43 82 106 143 43 42 83 76 89 76 6 0 11 8
11 18 0 10 7 39 16 65 9 25 14 54 12 63 -3 16 -4 17 -20 1 -9 -9 -27 -17 -40
-17 -18 0 -13 5 22 23 25 12 47 26 49 31 2 5 36 44 75 86 60 66 77 94 114 182
23 57 53 137 67 178 16 48 37 87 59 110 25 26 40 57 56 115 20 69 35 96 107
192 120 161 135 191 141 282 4 69 7 79 37 111 45 48 59 96 45 152 -11 41 -9
50 19 113 17 37 31 74 31 82 0 29 -35 133 -45 133 -5 0 -30 -18 -55 -40z
m-675 -1680 c-3 -5 -11 -10 -16 -10 -6 0 -7 5 -4 10 3 6 11 10 16 10 6 0 7 -4
4 -10z m-67 -37 c-7 -9 -20 -12 -36 -8 -18 4 -32 -1 -51 -17 -17 -16 -21 -17
-11 -4 23 29 69 54 91 49 16 -4 17 -8 7 -20z m-638 -263 c-20 -13 -33 -13 -25
0 3 6 14 10 23 10 15 0 15 -2 2 -10z"/>
<path d="M5327 1545 c-37 -10 -62 -35 -55 -55 3 -10 128 47 128 58 0 11 -29 9
-73 -3z"/>
</g>
</svg>
